<svg xmlns="http://www.w3.org/2000/svg" viewBox="0 0 400 300"><defs>
<linearGradient id="gBrass" x1="0" y1="0" x2="1" y2="0"><stop offset="0" stop-color="#8a5510"/><stop offset="0.2" stop-color="#d9a441"/><stop offset="0.42" stop-color="#fff0b3"/><stop offset="0.65" stop-color="#e0a937"/><stop offset="1" stop-color="#7a470b"/></linearGradient>
<linearGradient id="gBrassD" x1="0" y1="0" x2="1" y2="0"><stop offset="0" stop-color="#6b3f0a"/><stop offset="0.4" stop-color="#b98122"/><stop offset="1" stop-color="#5c3407"/></linearGradient>
<linearGradient id="gSteel" x1="0" y1="0" x2="1" y2="0"><stop offset="0" stop-color="#7d8794"/><stop offset="0.2" stop-color="#cfd6de"/><stop offset="0.42" stop-color="#ffffff"/><stop offset="0.65" stop-color="#b4bdc8"/><stop offset="1" stop-color="#6b7480"/></linearGradient>
<linearGradient id="gSteelD" x1="0" y1="0" x2="1" y2="0"><stop offset="0" stop-color="#5f6874"/><stop offset="0.5" stop-color="#9aa4b0"/><stop offset="1" stop-color="#515a66"/></linearGradient>
<linearGradient id="gCopper" x1="0" y1="0" x2="1" y2="0"><stop offset="0" stop-color="#7a2e12"/><stop offset="0.22" stop-color="#c8683b"/><stop offset="0.42" stop-color="#f6b48a"/><stop offset="0.65" stop-color="#c4623a"/><stop offset="1" stop-color="#6a2410"/></linearGradient>
<linearGradient id="gKansa" x1="0" y1="0" x2="1" y2="0"><stop offset="0" stop-color="#4a2f12"/><stop offset="0.25" stop-color="#9a6a2c"/><stop offset="0.45" stop-color="#d9a85a"/><stop offset="0.7" stop-color="#8a5a22"/><stop offset="1" stop-color="#3f270e"/></linearGradient>
<linearGradient id="gDark" x1="0" y1="0" x2="1" y2="0"><stop offset="0" stop-color="#15171c"/><stop offset="0.3" stop-color="#3a3f48"/><stop offset="0.5" stop-color="#5b6270"/><stop offset="0.75" stop-color="#2a2e36"/><stop offset="1" stop-color="#101216"/></linearGradient>
<linearGradient id="gRed" x1="0" y1="0" x2="1" y2="0"><stop offset="0" stop-color="#7f1020"/><stop offset="0.4" stop-color="#e0344c"/><stop offset="0.6" stop-color="#ff6b81"/><stop offset="1" stop-color="#7f1020"/></linearGradient>
<linearGradient id="gBlue" x1="0" y1="0" x2="1" y2="0"><stop offset="0" stop-color="#14305a"/><stop offset="0.4" stop-color="#2f63b5"/><stop offset="0.6" stop-color="#5b8fe0"/><stop offset="1" stop-color="#14305a"/></linearGradient>
<linearGradient id="gTeal" x1="0" y1="0" x2="1" y2="0"><stop offset="0" stop-color="#0b4a47"/><stop offset="0.4" stop-color="#1a8a85"/><stop offset="0.6" stop-color="#4cc2bb"/><stop offset="1" stop-color="#0b4a47"/></linearGradient>
<linearGradient id="gWhite" x1="0" y1="0" x2="1" y2="0"><stop offset="0" stop-color="#c9cfd6"/><stop offset="0.4" stop-color="#ffffff"/><stop offset="1" stop-color="#aab2bc"/></linearGradient>
<linearGradient id="gGlass" x1="0" y1="0" x2="1" y2="0"><stop offset="0" stop-color="#9fc9e4"/><stop offset="0.3" stop-color="#e9f6ff"/><stop offset="0.55" stop-color="#bfe0f3"/><stop offset="1" stop-color="#86b6d2"/></linearGradient>
<linearGradient id="gTop" x1="0" y1="0" x2="0" y2="1"><stop offset="0" stop-color="#3b414c"/><stop offset="1" stop-color="#14171c"/></linearGradient>
<radialGradient id="gShadow"><stop offset="0" stop-color="#000" stop-opacity=".3"/><stop offset="1" stop-color="#000" stop-opacity="0"/></radialGradient>
</defs><ellipse cx="200" cy="268" rx="175" ry="12" fill="url(#gShadow)"/><rect x="36" y="160" width="150" height="98" rx="14" fill="url(#gSteel)" /><rect x="30" y="142" width="162" height="24" rx="10" fill="url(#gTeal)" /><rect x="100" y="134" width="34" height="12" rx="5" fill="url(#gDark)" /><rect x="204" y="186" width="108" height="72" rx="12" fill="url(#gSteel)" /><rect x="198" y="170" width="120" height="22" rx="9" fill="url(#gBlue)" /><rect x="238" y="163" width="40" height="10" rx="5" fill="url(#gDark)" /><rect x="326" y="212" width="58" height="46" rx="10" fill="url(#gSteel)" /><rect x="321" y="199" width="68" height="18" rx="8" fill="url(#gRed)" /><rect x="344" y="193" width="22" height="9" rx="4" fill="url(#gDark)" /><path d="M52 176L52 244" fill="none" stroke="#ffffff" stroke-width="5" stroke-linecap="round" stroke-linejoin="round" stroke-opacity="0.6"/><path d="M218 198L218 246" fill="none" stroke="#ffffff" stroke-width="4" stroke-linecap="round" stroke-linejoin="round" stroke-opacity="0.6"/></svg>
