<svg xmlns="http://www.w3.org/2000/svg" viewBox="0 0 400 300"><defs>
<linearGradient id="gBrass" x1="0" y1="0" x2="1" y2="0"><stop offset="0" stop-color="#8a5510"/><stop offset="0.2" stop-color="#d9a441"/><stop offset="0.42" stop-color="#fff0b3"/><stop offset="0.65" stop-color="#e0a937"/><stop offset="1" stop-color="#7a470b"/></linearGradient>
<linearGradient id="gBrassD" x1="0" y1="0" x2="1" y2="0"><stop offset="0" stop-color="#6b3f0a"/><stop offset="0.4" stop-color="#b98122"/><stop offset="1" stop-color="#5c3407"/></linearGradient>
<linearGradient id="gSteel" x1="0" y1="0" x2="1" y2="0"><stop offset="0" stop-color="#7d8794"/><stop offset="0.2" stop-color="#cfd6de"/><stop offset="0.42" stop-color="#ffffff"/><stop offset="0.65" stop-color="#b4bdc8"/><stop offset="1" stop-color="#6b7480"/></linearGradient>
<linearGradient id="gSteelD" x1="0" y1="0" x2="1" y2="0"><stop offset="0" stop-color="#5f6874"/><stop offset="0.5" stop-color="#9aa4b0"/><stop offset="1" stop-color="#515a66"/></linearGradient>
<linearGradient id="gCopper" x1="0" y1="0" x2="1" y2="0"><stop offset="0" stop-color="#7a2e12"/><stop offset="0.22" stop-color="#c8683b"/><stop offset="0.42" stop-color="#f6b48a"/><stop offset="0.65" stop-color="#c4623a"/><stop offset="1" stop-color="#6a2410"/></linearGradient>
<linearGradient id="gKansa" x1="0" y1="0" x2="1" y2="0"><stop offset="0" stop-color="#4a2f12"/><stop offset="0.25" stop-color="#9a6a2c"/><stop offset="0.45" stop-color="#d9a85a"/><stop offset="0.7" stop-color="#8a5a22"/><stop offset="1" stop-color="#3f270e"/></linearGradient>
<linearGradient id="gDark" x1="0" y1="0" x2="1" y2="0"><stop offset="0" stop-color="#15171c"/><stop offset="0.3" stop-color="#3a3f48"/><stop offset="0.5" stop-color="#5b6270"/><stop offset="0.75" stop-color="#2a2e36"/><stop offset="1" stop-color="#101216"/></linearGradient>
<linearGradient id="gRed" x1="0" y1="0" x2="1" y2="0"><stop offset="0" stop-color="#7f1020"/><stop offset="0.4" stop-color="#e0344c"/><stop offset="0.6" stop-color="#ff6b81"/><stop offset="1" stop-color="#7f1020"/></linearGradient>
<linearGradient id="gBlue" x1="0" y1="0" x2="1" y2="0"><stop offset="0" stop-color="#14305a"/><stop offset="0.4" stop-color="#2f63b5"/><stop offset="0.6" stop-color="#5b8fe0"/><stop offset="1" stop-color="#14305a"/></linearGradient>
<linearGradient id="gTeal" x1="0" y1="0" x2="1" y2="0"><stop offset="0" stop-color="#0b4a47"/><stop offset="0.4" stop-color="#1a8a85"/><stop offset="0.6" stop-color="#4cc2bb"/><stop offset="1" stop-color="#0b4a47"/></linearGradient>
<linearGradient id="gWhite" x1="0" y1="0" x2="1" y2="0"><stop offset="0" stop-color="#c9cfd6"/><stop offset="0.4" stop-color="#ffffff"/><stop offset="1" stop-color="#aab2bc"/></linearGradient>
<linearGradient id="gGlass" x1="0" y1="0" x2="1" y2="0"><stop offset="0" stop-color="#9fc9e4"/><stop offset="0.3" stop-color="#e9f6ff"/><stop offset="0.55" stop-color="#bfe0f3"/><stop offset="1" stop-color="#86b6d2"/></linearGradient>
<linearGradient id="gTop" x1="0" y1="0" x2="0" y2="1"><stop offset="0" stop-color="#3b414c"/><stop offset="1" stop-color="#14171c"/></linearGradient>
<radialGradient id="gShadow"><stop offset="0" stop-color="#000" stop-opacity=".3"/><stop offset="1" stop-color="#000" stop-opacity="0"/></radialGradient>
</defs><ellipse cx="200" cy="268" rx="170" ry="12" fill="url(#gShadow)"/><path d="M40 168C40 250 160 250 160 168Z" fill="url(#gGlass)" opacity=".85"/><ellipse cx="100" cy="168" rx="60" ry="11" fill="#dff1fb" stroke="#fff" stroke-width="2"/><path d="M56 186Q64 232 96 240" fill="none" stroke="#ffffff" stroke-width="5" stroke-linecap="round" stroke-linejoin="round" stroke-opacity="0.9"/><path d="M168 190C168 252 258 252 258 190Z" fill="url(#gGlass)" opacity=".85"/><ellipse cx="213" cy="190" rx="45" ry="9" fill="#dff1fb" stroke="#fff" stroke-width="2"/><path d="M180 204Q186 238 208 244" fill="none" stroke="#ffffff" stroke-width="4" stroke-linecap="round" stroke-linejoin="round" stroke-opacity="0.9"/><path d="M274 156L279 248Q279 262 293 262H299Q313 262 313 248L318 156Z" fill="url(#gGlass)"  opacity=".85"/><ellipse cx="296" cy="156" rx="22" ry="5" fill="#dff1fb" stroke="#fff" stroke-width="1.5"/><path d="M284 168L286 250" fill="none" stroke="#ffffff" stroke-width="3" stroke-linecap="round" stroke-linejoin="round" stroke-opacity="0.9"/><path d="M320 172L325 248Q325 262 339 262H345Q359 262 359 248L364 172Z" fill="url(#gGlass)"  opacity=".85"/><ellipse cx="342" cy="172" rx="22" ry="5" fill="#dff1fb" stroke="#fff" stroke-width="1.5"/><path d="M330 184L332 250" fill="none" stroke="#ffffff" stroke-width="3" stroke-linecap="round" stroke-linejoin="round" stroke-opacity="0.9"/><path d="M298 192L303 248Q303 262 317 262H323Q337 262 337 248L342 192Z" fill="url(#gGlass)"  opacity=".85"/><ellipse cx="320" cy="192" rx="22" ry="5" fill="#dff1fb" stroke="#fff" stroke-width="1.5"/><path d="M308 204L310 250" fill="none" stroke="#ffffff" stroke-width="3" stroke-linecap="round" stroke-linejoin="round" stroke-opacity="0.9"/></svg>
