<svg xmlns="http://www.w3.org/2000/svg" viewBox="0 0 400 300"><defs>
<linearGradient id="gBrass" x1="0" y1="0" x2="1" y2="0"><stop offset="0" stop-color="#8a5510"/><stop offset="0.2" stop-color="#d9a441"/><stop offset="0.42" stop-color="#fff0b3"/><stop offset="0.65" stop-color="#e0a937"/><stop offset="1" stop-color="#7a470b"/></linearGradient>
<linearGradient id="gBrassD" x1="0" y1="0" x2="1" y2="0"><stop offset="0" stop-color="#6b3f0a"/><stop offset="0.4" stop-color="#b98122"/><stop offset="1" stop-color="#5c3407"/></linearGradient>
<linearGradient id="gSteel" x1="0" y1="0" x2="1" y2="0"><stop offset="0" stop-color="#7d8794"/><stop offset="0.2" stop-color="#cfd6de"/><stop offset="0.42" stop-color="#ffffff"/><stop offset="0.65" stop-color="#b4bdc8"/><stop offset="1" stop-color="#6b7480"/></linearGradient>
<linearGradient id="gSteelD" x1="0" y1="0" x2="1" y2="0"><stop offset="0" stop-color="#5f6874"/><stop offset="0.5" stop-color="#9aa4b0"/><stop offset="1" stop-color="#515a66"/></linearGradient>
<linearGradient id="gCopper" x1="0" y1="0" x2="1" y2="0"><stop offset="0" stop-color="#7a2e12"/><stop offset="0.22" stop-color="#c8683b"/><stop offset="0.42" stop-color="#f6b48a"/><stop offset="0.65" stop-color="#c4623a"/><stop offset="1" stop-color="#6a2410"/></linearGradient>
<linearGradient id="gKansa" x1="0" y1="0" x2="1" y2="0"><stop offset="0" stop-color="#4a2f12"/><stop offset="0.25" stop-color="#9a6a2c"/><stop offset="0.45" stop-color="#d9a85a"/><stop offset="0.7" stop-color="#8a5a22"/><stop offset="1" stop-color="#3f270e"/></linearGradient>
<linearGradient id="gDark" x1="0" y1="0" x2="1" y2="0"><stop offset="0" stop-color="#15171c"/><stop offset="0.3" stop-color="#3a3f48"/><stop offset="0.5" stop-color="#5b6270"/><stop offset="0.75" stop-color="#2a2e36"/><stop offset="1" stop-color="#101216"/></linearGradient>
<linearGradient id="gRed" x1="0" y1="0" x2="1" y2="0"><stop offset="0" stop-color="#7f1020"/><stop offset="0.4" stop-color="#e0344c"/><stop offset="0.6" stop-color="#ff6b81"/><stop offset="1" stop-color="#7f1020"/></linearGradient>
<linearGradient id="gBlue" x1="0" y1="0" x2="1" y2="0"><stop offset="0" stop-color="#14305a"/><stop offset="0.4" stop-color="#2f63b5"/><stop offset="0.6" stop-color="#5b8fe0"/><stop offset="1" stop-color="#14305a"/></linearGradient>
<linearGradient id="gTeal" x1="0" y1="0" x2="1" y2="0"><stop offset="0" stop-color="#0b4a47"/><stop offset="0.4" stop-color="#1a8a85"/><stop offset="0.6" stop-color="#4cc2bb"/><stop offset="1" stop-color="#0b4a47"/></linearGradient>
<linearGradient id="gWhite" x1="0" y1="0" x2="1" y2="0"><stop offset="0" stop-color="#c9cfd6"/><stop offset="0.4" stop-color="#ffffff"/><stop offset="1" stop-color="#aab2bc"/></linearGradient>
<linearGradient id="gGlass" x1="0" y1="0" x2="1" y2="0"><stop offset="0" stop-color="#9fc9e4"/><stop offset="0.3" stop-color="#e9f6ff"/><stop offset="0.55" stop-color="#bfe0f3"/><stop offset="1" stop-color="#86b6d2"/></linearGradient>
<linearGradient id="gTop" x1="0" y1="0" x2="0" y2="1"><stop offset="0" stop-color="#3b414c"/><stop offset="1" stop-color="#14171c"/></linearGradient>
<radialGradient id="gShadow"><stop offset="0" stop-color="#000" stop-opacity=".3"/><stop offset="1" stop-color="#000" stop-opacity="0"/></radialGradient>
</defs><ellipse cx="200" cy="268" rx="170" ry="12" fill="url(#gShadow)"/><path d="M190 108L196 244Q196 258 210 258H320Q334 258 334 244L340 108Z" fill="url(#gBrass)" /><path d="M192 141q-16 2 -14 16" fill="none" stroke="url(#gBrassD)" stroke-width="6" stroke-linecap="round" stroke-linejoin="round" /><path d="M338 141q16 2 14 16" fill="none" stroke="url(#gBrassD)" stroke-width="6" stroke-linecap="round" stroke-linejoin="round" /><path d="M208 145.5L214 244" fill="none" stroke="#ffffff" stroke-width="4" stroke-linecap="round" stroke-linejoin="round" stroke-opacity="0.45"/><ellipse cx="265" cy="108" rx="79" ry="8" fill="url(#gBrassD)" /><path d="M196 108C196 48 334 48 334 108Z" fill="url(#gBrass)" /><circle cx="265" cy="63" r="6" fill="url(#gBrassD)"/><path d="M50 152L54.8 250Q54.8 264 68.8 264H151.2Q165.2 264 165.2 250L170 152Z" fill="url(#gBrass)" /><path d="M52 176.64q-16 2 -14 16" fill="none" stroke="url(#gBrassD)" stroke-width="6" stroke-linecap="round" stroke-linejoin="round" /><path d="M168 176.64q16 2 14 16" fill="none" stroke="url(#gBrassD)" stroke-width="6" stroke-linecap="round" stroke-linejoin="round" /><path d="M64.4 180L69.2 250" fill="none" stroke="#ffffff" stroke-width="4" stroke-linecap="round" stroke-linejoin="round" stroke-opacity="0.45"/><ellipse cx="110" cy="152" rx="64" ry="8" fill="url(#gBrassD)" /><path d="M56 152C56 107.19999999999999 164 107.19999999999999 164 152Z" fill="url(#gBrass)" /><circle cx="110" cy="118.4" r="6" fill="url(#gBrassD)"/></svg>
