<svg xmlns="http://www.w3.org/2000/svg" viewBox="0 0 400 300"><defs>
<linearGradient id="gBrass" x1="0" y1="0" x2="1" y2="0"><stop offset="0" stop-color="#8a5510"/><stop offset="0.2" stop-color="#d9a441"/><stop offset="0.42" stop-color="#fff0b3"/><stop offset="0.65" stop-color="#e0a937"/><stop offset="1" stop-color="#7a470b"/></linearGradient>
<linearGradient id="gBrassD" x1="0" y1="0" x2="1" y2="0"><stop offset="0" stop-color="#6b3f0a"/><stop offset="0.4" stop-color="#b98122"/><stop offset="1" stop-color="#5c3407"/></linearGradient>
<linearGradient id="gSteel" x1="0" y1="0" x2="1" y2="0"><stop offset="0" stop-color="#7d8794"/><stop offset="0.2" stop-color="#cfd6de"/><stop offset="0.42" stop-color="#ffffff"/><stop offset="0.65" stop-color="#b4bdc8"/><stop offset="1" stop-color="#6b7480"/></linearGradient>
<linearGradient id="gSteelD" x1="0" y1="0" x2="1" y2="0"><stop offset="0" stop-color="#5f6874"/><stop offset="0.5" stop-color="#9aa4b0"/><stop offset="1" stop-color="#515a66"/></linearGradient>
<linearGradient id="gCopper" x1="0" y1="0" x2="1" y2="0"><stop offset="0" stop-color="#7a2e12"/><stop offset="0.22" stop-color="#c8683b"/><stop offset="0.42" stop-color="#f6b48a"/><stop offset="0.65" stop-color="#c4623a"/><stop offset="1" stop-color="#6a2410"/></linearGradient>
<linearGradient id="gKansa" x1="0" y1="0" x2="1" y2="0"><stop offset="0" stop-color="#4a2f12"/><stop offset="0.25" stop-color="#9a6a2c"/><stop offset="0.45" stop-color="#d9a85a"/><stop offset="0.7" stop-color="#8a5a22"/><stop offset="1" stop-color="#3f270e"/></linearGradient>
<linearGradient id="gDark" x1="0" y1="0" x2="1" y2="0"><stop offset="0" stop-color="#15171c"/><stop offset="0.3" stop-color="#3a3f48"/><stop offset="0.5" stop-color="#5b6270"/><stop offset="0.75" stop-color="#2a2e36"/><stop offset="1" stop-color="#101216"/></linearGradient>
<linearGradient id="gRed" x1="0" y1="0" x2="1" y2="0"><stop offset="0" stop-color="#7f1020"/><stop offset="0.4" stop-color="#e0344c"/><stop offset="0.6" stop-color="#ff6b81"/><stop offset="1" stop-color="#7f1020"/></linearGradient>
<linearGradient id="gBlue" x1="0" y1="0" x2="1" y2="0"><stop offset="0" stop-color="#14305a"/><stop offset="0.4" stop-color="#2f63b5"/><stop offset="0.6" stop-color="#5b8fe0"/><stop offset="1" stop-color="#14305a"/></linearGradient>
<linearGradient id="gTeal" x1="0" y1="0" x2="1" y2="0"><stop offset="0" stop-color="#0b4a47"/><stop offset="0.4" stop-color="#1a8a85"/><stop offset="0.6" stop-color="#4cc2bb"/><stop offset="1" stop-color="#0b4a47"/></linearGradient>
<linearGradient id="gWhite" x1="0" y1="0" x2="1" y2="0"><stop offset="0" stop-color="#c9cfd6"/><stop offset="0.4" stop-color="#ffffff"/><stop offset="1" stop-color="#aab2bc"/></linearGradient>
<linearGradient id="gGlass" x1="0" y1="0" x2="1" y2="0"><stop offset="0" stop-color="#9fc9e4"/><stop offset="0.3" stop-color="#e9f6ff"/><stop offset="0.55" stop-color="#bfe0f3"/><stop offset="1" stop-color="#86b6d2"/></linearGradient>
<linearGradient id="gTop" x1="0" y1="0" x2="0" y2="1"><stop offset="0" stop-color="#3b414c"/><stop offset="1" stop-color="#14171c"/></linearGradient>
<radialGradient id="gShadow"><stop offset="0" stop-color="#000" stop-opacity=".3"/><stop offset="1" stop-color="#000" stop-opacity="0"/></radialGradient>
</defs><ellipse cx="200" cy="268" rx="175" ry="12" fill="url(#gShadow)"/><path d="M52 182L56.16 248Q56.16 262 70.16 262H137.84Q151.84 262 151.84 248L156 182Z" fill="url(#gBrass)" /><path d="M54 199.6q-16 2 -14 16" fill="none" stroke="url(#gBrassD)" stroke-width="6" stroke-linecap="round" stroke-linejoin="round" /><path d="M154 199.6q16 2 14 16" fill="none" stroke="url(#gBrassD)" stroke-width="6" stroke-linecap="round" stroke-linejoin="round" /><path d="M64.48 202L68.64 248" fill="none" stroke="#ffffff" stroke-width="4" stroke-linecap="round" stroke-linejoin="round" stroke-opacity="0.45"/><ellipse cx="104" cy="182" rx="52" ry="9" fill="url(#gBrass)" /><ellipse cx="104" cy="183.5" rx="47" ry="6" fill="#2b1a08" /><path d="M198 117L198 131C138 139 138 250 200 262L300 262C362 250 362 139 302 131L302 117Z" fill="url(#gBrass)" /><path d="M160 167q-20 6 -12 24" fill="none" stroke="url(#gBrassD)" stroke-width="7.000000000000001" stroke-linecap="round" stroke-linejoin="round" /><path d="M340 167q20 6 12 24" fill="none" stroke="url(#gBrassD)" stroke-width="7.000000000000001" stroke-linecap="round" stroke-linejoin="round" /><path d="M188 119C188 75 312 75 312 119Z" fill="url(#gBrass)" /><ellipse cx="250" cy="119" rx="63" ry="7.000000000000001" fill="url(#gBrassD)" /><circle cx="250" cy="87" r="8" fill="url(#gBrassD)"/><ellipse cx="250" cy="94" rx="4" ry="6" fill="url(#gBrassD)" /><path d="M172 172Q168 222 200 252" fill="none" stroke="#ffffff" stroke-width="7.000000000000001" stroke-linecap="round" stroke-linejoin="round" stroke-opacity="0.5"/></svg>
